<svg width="20" height="20" viewBox="0 0 20 20" fill="none" xmlns="http://www.w3.org/2000/svg">
<mask id="mask0_3_1169" style="mask-type:alpha" maskUnits="userSpaceOnUse" x="0" y="0" width="20" height="20">
<rect width="20" height="20" fill="#D9D9D9"></rect>
</mask>
<g mask="url(#mask0_3_1169)">
<path d="M14.1666 14.1666C14.5139 14.1666 14.809 14.045 15.0521 13.802C15.2951 13.5589 15.4166 13.2638 15.4166 12.9166C15.4166 12.5693 15.2951 12.2742 15.0521 12.0311C14.809 11.7881 14.5139 11.6666 14.1666 11.6666C13.8194 11.6666 13.5243 11.7881 13.2812 12.0311C13.0382 12.2742 12.9166 12.5693 12.9166 12.9166C12.9166 13.2638 13.0382 13.5589 13.2812 13.802C13.5243 14.045 13.8194 14.1666 14.1666 14.1666ZM14.1666 16.6666C14.5972 16.6666 14.993 16.5659 15.3541 16.3645C15.7153 16.1631 16.0069 15.8957 16.2291 15.5624C15.9236 15.3818 15.5972 15.243 15.25 15.1457C14.9028 15.0485 14.5416 14.9999 14.1666 14.9999C13.7916 14.9999 13.4305 15.0485 13.0833 15.1457C12.7361 15.243 12.4097 15.3818 12.1041 15.5624C12.3264 15.8957 12.618 16.1631 12.9791 16.3645C13.3403 16.5659 13.7361 16.6666 14.1666 16.6666ZM9.99998 18.3332C8.06942 17.8471 6.47567 16.7395 5.21873 15.0103C3.96179 13.2811 3.33331 11.361 3.33331 9.2499V4.16656L9.99998 1.66656L16.6666 4.16656V8.89573C16.4028 8.78462 16.1319 8.68392 15.8541 8.59365C15.5764 8.50337 15.2916 8.4374 15 8.39573V5.33323L9.99998 3.45823L4.99998 5.33323V9.2499C4.99998 9.90267 5.08679 10.5555 5.2604 11.2082C5.43401 11.861 5.67706 12.4825 5.98956 13.0728C6.30206 13.6631 6.68054 14.2082 7.12498 14.7082C7.56942 15.2082 8.06248 15.6249 8.60415 15.9582C8.75692 16.4027 8.95831 16.8263 9.20831 17.2291C9.45831 17.6318 9.74303 17.993 10.0625 18.3124C10.0486 18.3124 10.0382 18.3159 10.0312 18.3228C10.0243 18.3298 10.0139 18.3332 9.99998 18.3332ZM14.1666 18.3332C13.0139 18.3332 12.0312 17.927 11.2187 17.1145C10.4062 16.302 9.99998 15.3193 9.99998 14.1666C9.99998 13.0138 10.4062 12.0311 11.2187 11.2186C12.0312 10.4061 13.0139 9.9999 14.1666 9.9999C15.3194 9.9999 16.3021 10.4061 17.1146 11.2186C17.9271 12.0311 18.3333 13.0138 18.3333 14.1666C18.3333 15.3193 17.9271 16.302 17.1146 17.1145C16.3021 17.927 15.3194 18.3332 14.1666 18.3332Z" fill="#1C1B1F"></path>
</g>
</svg>