<svg width="18" height="18" viewBox="0 0 18 18" fill="none" xmlns="http://www.w3.org/2000/svg">
<path fill-rule="evenodd" clip-rule="evenodd" d="M9 0C9.18361 0 9.3597 0.0729393 9.48954 0.202772C9.61937 0.332605 9.69231 0.508696 9.69231 0.692308V11.4831L12.6646 8.51077C12.728 8.44275 12.8044 8.3882 12.8893 8.35036C12.9743 8.31252 13.0659 8.29217 13.1589 8.29053C13.2519 8.28889 13.3442 8.30599 13.4304 8.34081C13.5166 8.37563 13.5949 8.42745 13.6607 8.4932C13.7264 8.55894 13.7782 8.63724 13.813 8.72345C13.8479 8.80965 13.865 8.90199 13.8633 8.99494C13.8617 9.0879 13.8413 9.17957 13.8035 9.2645C13.7657 9.34942 13.7111 9.42585 13.6431 9.48923L9.48923 13.6431C9.35942 13.7727 9.18346 13.8455 9 13.8455C8.81654 13.8455 8.64058 13.7727 8.51077 13.6431L4.35692 9.48923C4.2889 9.42585 4.23435 9.34942 4.19651 9.2645C4.15867 9.17957 4.13833 9.0879 4.13668 8.99494C4.13504 8.90199 4.15214 8.80965 4.18696 8.72345C4.22178 8.63724 4.27361 8.55894 4.33935 8.4932C4.40509 8.42745 4.4834 8.37563 4.5696 8.34081C4.65581 8.30599 4.74814 8.28889 4.8411 8.29053C4.93405 8.29217 5.02573 8.31252 5.11065 8.35036C5.19557 8.3882 5.272 8.44275 5.33538 8.51077L8.30769 11.4831V0.692308C8.30769 0.508696 8.38063 0.332605 8.51046 0.202772C8.6403 0.0729393 8.81639 0 9 0ZM0.692308 12.4615C0.875919 12.4615 1.05201 12.5345 1.18184 12.6643C1.31168 12.7941 1.38462 12.9702 1.38462 13.1538V15.2308C1.38462 15.598 1.53049 15.9502 1.79016 16.2098C2.04983 16.4695 2.40201 16.6154 2.76923 16.6154H15.2308C15.598 16.6154 15.9502 16.4695 16.2098 16.2098C16.4695 15.9502 16.6154 15.598 16.6154 15.2308V13.1538C16.6154 12.9702 16.6883 12.7941 16.8182 12.6643C16.948 12.5345 17.1241 12.4615 17.3077 12.4615C17.4913 12.4615 17.6674 12.5345 17.7972 12.6643C17.9271 12.7941 18 12.9702 18 13.1538V15.2308C18 15.9652 17.7082 16.6696 17.1889 17.1889C16.6696 17.7082 15.9652 18 15.2308 18H2.76923C2.03479 18 1.33042 17.7082 0.811089 17.1889C0.291757 16.6696 0 15.9652 0 15.2308V13.1538C0 12.9702 0.0729393 12.7941 0.202772 12.6643C0.332605 12.5345 0.508696 12.4615 0.692308 12.4615Z" fill="#231F20"></path>
</svg>