<svg width="20" height="20" viewBox="0 0 20 20" fill="none" xmlns="http://www.w3.org/2000/svg">
<path d="M16.6667 15.8073H2.29169C1.94598 15.8073 1.66669 16.0866 1.66669 16.4323V17.1354C1.66669 17.2214 1.737 17.2917 1.82294 17.2917H17.1354C17.2214 17.2917 17.2917 17.2214 17.2917 17.1354V16.4323C17.2917 16.0866 17.0124 15.8073 16.6667 15.8073ZM4.51239 14.1667C4.55145 14.1667 4.59052 14.1628 4.62958 14.1569L7.91473 13.5807C7.9538 13.5729 7.99091 13.5554 8.01825 13.5261L16.2975 5.24676C16.3157 5.2287 16.33 5.20723 16.3398 5.18361C16.3496 5.15998 16.3547 5.13465 16.3547 5.10907C16.3547 5.08349 16.3496 5.05816 16.3398 5.03453C16.33 5.01091 16.3157 4.98944 16.2975 4.97137L13.0515 1.72333C13.0143 1.68622 12.9655 1.66669 12.9128 1.66669C12.86 1.66669 12.8112 1.68622 12.7741 1.72333L4.49481 10.0026C4.46551 10.0319 4.44794 10.0671 4.44012 10.1061L3.86395 13.3913C3.84495 13.4959 3.85174 13.6036 3.88373 13.705C3.91572 13.8064 3.97195 13.8985 4.04755 13.9733C4.17645 14.0983 4.33856 14.1667 4.51239 14.1667ZM5.8288 10.7604L12.9128 3.67841L14.3444 5.11005L7.26044 12.1921L5.52411 12.4987L5.8288 10.7604Z" fill="black"></path>
</svg>