<svg width="34" height="32" viewBox="0 0 34 32" fill="none" xmlns="http://www.w3.org/2000/svg">
<path d="M17 10C12.9091 10 9.41545 12.488 8 16C9.41545 19.512 12.9091 22 17 22C21.0909 22 24.5845 19.512 26 16C24.5845 12.488 21.0909 10 17 10ZM17 20C14.7418 20 12.9091 18.208 12.9091 16C12.9091 13.792 14.7418 12 17 12C19.2582 12 21.0909 13.792 21.0909 16C21.0909 18.208 19.2582 20 17 20ZM17 13.6C15.6418 13.6 14.5455 14.672 14.5455 16C14.5455 17.328 15.6418 18.4 17 18.4C18.3582 18.4 19.4545 17.328 19.4545 16C19.4545 14.672 18.3582 13.6 17 13.6Z" fill="currentColor"></path>
</svg>