<svg width="20" height="20" viewBox="0 0 20 20" fill="none" xmlns="http://www.w3.org/2000/svg">
<path d="M10 0C7.243 0 5 2.243 5 5V7H4C2.897 7 2 7.897 2 9V18C2 19.103 2.897 20 4 20H16C17.103 20 18 19.103 18 18V9C18 7.897 17.103 7 16 7H15V5C15 2.243 12.757 0 10 0ZM7 5C7 3.346 8.346 2 10 2C11.654 2 13 3.346 13 5V7H7V5ZM16.002 18H11V15.722C11.595 15.375 12 14.737 12 14C12 12.897 11.103 12 10 12C8.897 12 8 12.897 8 14C8 14.736 8.405 15.375 9 15.722V18H4V9H16L16.002 18Z" fill="#231F20"></path>
</svg>