<svg width="20" height="20" viewBox="0 0 20 20" fill="none" xmlns="http://www.w3.org/2000/svg">
<mask id="mask0_3_1124" style="mask-type:alpha" maskUnits="userSpaceOnUse" x="0" y="0" width="20" height="20">
<rect width="20" height="20" fill="#D9D9D9"></rect>
</mask>
<g mask="url(#mask0_3_1124)">
<path d="M4.58335 18.7499L1.66669 15.8332L4.58335 12.9166L5.77085 14.0832L4.85419 14.9999H15.1459L14.25 14.0832L15.4167 12.9166L18.3334 15.8332L15.4167 18.7499L14.2292 17.5832L15.1459 16.6666H4.85419L5.75002 17.5832L4.58335 18.7499ZM10 9.16655C9.30557 9.16655 8.7153 8.92349 8.22919 8.43738C7.74307 7.95127 7.50002 7.36099 7.50002 6.66655C7.50002 5.97211 7.74307 5.38183 8.22919 4.89572C8.7153 4.40961 9.30557 4.16655 10 4.16655C10.6945 4.16655 11.2847 4.40961 11.7709 4.89572C12.257 5.38183 12.5 5.97211 12.5 6.66655C12.5 7.36099 12.257 7.95127 11.7709 8.43738C11.2847 8.92349 10.6945 9.16655 10 9.16655ZM4.16669 11.6666C3.70835 11.6666 3.31599 11.5034 2.9896 11.177C2.66321 10.8506 2.50002 10.4582 2.50002 9.99988V3.33322C2.50002 2.87488 2.66321 2.48252 2.9896 2.15613C3.31599 1.82974 3.70835 1.66655 4.16669 1.66655H15.8334C16.2917 1.66655 16.684 1.82974 17.0104 2.15613C17.3368 2.48252 17.5 2.87488 17.5 3.33322V9.99988C17.5 10.4582 17.3368 10.8506 17.0104 11.177C16.684 11.5034 16.2917 11.6666 15.8334 11.6666H4.16669ZM5.83335 9.99988H14.1667C14.1667 9.54155 14.3299 9.14919 14.6563 8.8228C14.9827 8.49641 15.375 8.33322 15.8334 8.33322V4.99988C15.375 4.99988 14.9827 4.83669 14.6563 4.5103C14.3299 4.18391 14.1667 3.79155 14.1667 3.33322H5.83335C5.83335 3.79155 5.67016 4.18391 5.34377 4.5103C5.01738 4.83669 4.62502 4.99988 4.16669 4.99988V8.33322C4.62502 8.33322 5.01738 8.49641 5.34377 8.8228C5.67016 9.14919 5.83335 9.54155 5.83335 9.99988Z" fill="#231F20"></path>
</g>
</svg>