<svg width="24" height="32" viewBox="0 0 24 32" fill="none" xmlns="http://www.w3.org/2000/svg">
<path d="M12 6.76874C11.9 6.76874 11.8032 6.78749 11.7097 6.82499C11.6157 6.86249 11.5375 6.91249 11.475 6.97499L8.02498 10.425C7.88748 10.5625 7.81873 10.7375 7.81873 10.95C7.81873 11.1625 7.88748 11.3375 8.02498 11.475C8.16248 11.6125 8.33748 11.6812 8.54998 11.6812C8.76248 11.6812 8.93748 11.6125 9.07498 11.475L12 8.54999L14.925 11.475C15.0625 11.6125 15.2375 11.6812 15.45 11.6812C15.6625 11.6812 15.8375 11.6125 15.975 11.475C16.1125 11.3375 16.1812 11.1625 16.1812 10.95C16.1812 10.7375 16.1125 10.5625 15.975 10.425L12.525 6.97499C12.45 6.89999 12.3687 6.84699 12.2812 6.81599C12.1937 6.78449 12.1 6.76874 12 6.76874Z" fill="#303030"></path>
<path d="M12 25.2313C11.9 25.2313 11.8032 25.2125 11.7097 25.175C11.6157 25.1375 11.5375 25.0875 11.475 25.025L8.02498 21.575C7.88748 21.4375 7.81873 21.2625 7.81873 21.05C7.81873 20.8375 7.88748 20.6625 8.02498 20.525C8.16248 20.3875 8.33748 20.3188 8.54998 20.3188C8.76248 20.3188 8.93748 20.3875 9.07498 20.525L12 23.45L14.925 20.525C15.0625 20.3875 15.2375 20.3188 15.45 20.3188C15.6625 20.3188 15.8375 20.3875 15.975 20.525C16.1125 20.6625 16.1812 20.8375 16.1812 21.05C16.1812 21.2625 16.1125 21.4375 15.975 21.575L12.525 25.025C12.45 25.1 12.3687 25.153 12.2812 25.184C12.1937 25.2155 12.1 25.2313 12 25.2313Z" fill="#303030"></path>
</svg>